<?xml version="1.0" encoding="UTF-8"?>
<svg width="64" height="64" version="1.1" viewBox="0 0 16.933 16.933" xmlns="http://www.w3.org/2000/svg" xmlns:cc="http://creativecommons.org/ns#" xmlns:dc="http://purl.org/dc/elements/1.1/" xmlns:rdf="http://www.w3.org/1999/02/22-rdf-syntax-ns#" xmlns:xlink="http://www.w3.org/1999/xlink">
 <defs>
  <style type="text/css"/>
  <linearGradient id="linearGradient1911" x1="25.085" x2="25.085" y1="24.031" y2="26.412" gradientTransform="translate(-17.897 -21.385)" gradientUnits="userSpaceOnUse">
   <stop stop-color="#047e5c" stop-opacity=".99608" offset="0"/>
   <stop stop-color="#06755d" offset="1"/>
  </linearGradient>
  <linearGradient id="linearGradient4625" x1=".52918" x2="16.404" y1="5.0665" y2="5.0665" gradientUnits="userSpaceOnUse">
   <stop stop-color="#108b94" offset="0"/>
   <stop stop-color="#42aeb8" stop-opacity="0" offset="1"/>
  </linearGradient>
  <linearGradient id="linearGradient1951" x1="100" x2="133.19" y1="17.453" y2="51.606" gradientTransform="matrix(.26458 0 0 .26458 -20.108 -.13539)" gradientUnits="userSpaceOnUse">
   <stop stop-color="#38c494" offset="0"/>
   <stop stop-color="#0099a8" offset="1"/>
  </linearGradient>
  <linearGradient id="linearGradient11110" x1=".52917" x2="16.404" y1="5.3815" y2="5.3815" gradientUnits="userSpaceOnUse">
   <stop stop-color="#fff" offset="0"/>
   <stop stop-color="#fff" stop-opacity="0" offset="1"/>
  </linearGradient>
 </defs>
 <metadata>
  <rdf:RDF>
   <cc:Work rdf:about="">
    <dc:format>image/svg+xml</dc:format>
    <dc:type rdf:resource="http://purl.org/dc/dcmitype/StillImage"/>
   </cc:Work>
  </rdf:RDF>
 </metadata>
 <path d="m1.1975 2.2489c-0.3653 0-0.66145 0.32575-0.66145 0.72759v2.9636c-0.0026 0.02629-0.0072 0.052-0.0072 0.07906v7.9373c0 0.40184 0.29614 0.72759 0.66144 0.72759h14.552c0.36531 0 0.66144-0.32575 0.66144-0.72759v-9.393c0-0.40184-0.29614-0.72759-0.66144-0.72759v5.16e-4h-8.1993l-0.89864-1.1095s-0.36607-0.478-1.0583-0.478h-1.3229z" color="#000000" color-rendering="auto" dominant-baseline="auto" fill="url(#linearGradient1911)" image-rendering="auto" shape-rendering="auto" solid-color="#000000" stop-color="#000000" style="font-feature-settings:normal;font-variant-alternates:normal;font-variant-caps:normal;font-variant-east-asian:normal;font-variant-ligatures:normal;font-variant-numeric:normal;font-variant-position:normal;font-variation-settings:normal;inline-size:0;isolation:auto;mix-blend-mode:normal;shape-margin:0;shape-padding:0;text-decoration-color:#000000;text-decoration-line:none;text-decoration-style:solid;text-indent:0;text-orientation:mixed;text-transform:none;white-space:normal"/>
 <g fill="#5e4aa6" stroke-width=".26458">
  <circle cx="-330.35" cy="-328.38" r="0"/>
  <circle cx="-312.11" cy="-326.25" r="0"/>
  <circle cx="-306.02" cy="-333.07" r="0"/>
  <circle cx="-308.84" cy="-326.01" r="0"/>
  <g transform="translate(.000295 -.00032978)">
   <circle cx="-330.35" cy="-328.38" r="0"/>
   <circle cx="-312.11" cy="-326.25" r="0"/>
   <circle cx="-306.02" cy="-333.07" r="0"/>
   <circle cx="-308.84" cy="-326.01" r="0"/>
   <circle cx="-328.8" cy="-330.45" r="0"/>
  </g>
  <circle cx="-330.35" cy="-328.38" r="0"/>
  <circle cx="-312.11" cy="-326.25" r="0"/>
  <circle cx="-306.02" cy="-333.07" r="0"/>
  <circle cx="-308.84" cy="-326.01" r="0"/>
  <circle cx="-328.8" cy="-330.45" r="0"/>
  <g transform="translate(2.95e-4,-3.2978e-4)">
   <circle cx="-330.35" cy="-328.38" r="0"/>
   <circle cx="-312.11" cy="-326.25" r="0"/>
   <circle cx="-306.02" cy="-333.07" r="0"/>
   <circle cx="-308.84" cy="-326.01" r="0"/>
   <circle cx="-328.8" cy="-330.45" r="0"/>
  </g>
 </g>
 <path d="m8.3606 3.8364c-0.11312 0.0018-0.30848-0.01542-0.51986 0.09508-0.73647 0.37946-0.77226 0.59366-1.557 0.71415h-4.9608c-0.21986 0-0.41824 0.08855-0.56171 0.23202-0.13937 0.13936-0.22041 0.33333-0.2253 0.54569v0.2775c0.0049-0.21236 0.08593-0.40633 0.2253-0.54569 0.14347-0.14347 0.34185-0.23202 0.56171-0.23202h4.9608c0.78472-0.1205 0.82051-0.33469 1.557-0.71415 0.21138-0.1105 0.40673-0.09328 0.51986-0.09508h7.3828c0.18216 3.65e-4 0.3472 0.08101 0.46663 0.21239 0.1197 0.13167 0.19378 0.31377 0.19378 0.51469v-0.2775c0-0.20092-0.07408-0.38302-0.19378-0.51469-0.11943-0.13137-0.28447-0.21202-0.46663-0.21239h-1.1652zm-7.8247 2.1037c-0.0026 0.02629-0.0067 0.05201-0.0067 0.07906v0.2775c0-0.02705 0.0041-0.05277 0.0067-0.07906z" fill="url(#linearGradient4625)" opacity=".2" stroke-width=".26458"/>
 <path d="m0.52916 13.674v0.28215c0 0.20092 0.07357 0.3825 0.19327 0.51417s0.28553 0.21342 0.46818 0.21342h14.552c0.18265 0 0.34796-0.08175 0.46766-0.21342s0.19378-0.31325 0.19378-0.51417v-0.28215c0 0.20092-0.07409 0.3825-0.19378 0.51417-0.1197 0.13167-0.28501 0.21342-0.46766 0.21342h-14.552c-0.18265 0-0.34848-0.08176-0.46818-0.21342s-0.19327-0.31325-0.19327-0.51417z" fill="#1fad9d" fill-opacity=".99608" stroke-width=".26458"/>
 <path d="m7.542 4.0979s-0.35919 0.47868-1.1575 0.79218c-0.03271 0.00587-0.06509 0.011575-0.10077 0.017052h-4.9608c-0.21986 0-0.41824 0.088552-0.56171 0.23202-0.13937 0.13936-0.22042 0.33333-0.2253 0.54569v0.51675c-0.0026 0.026291-0.0067 0.052014-0.0067 0.079064v7.3953c0 0.20092 0.07357 0.3825 0.19327 0.51417 0.1197 0.13167 0.28553 0.21342 0.46818 0.21342h14.552c0.18265 0 0.34796-0.08175 0.46766-0.21342 0.1197-0.13167 0.19378-0.31325 0.19378-0.51417v-8.851c0-0.20092-0.07408-0.38302-0.19378-0.51469-0.11945-0.13137-0.28449-0.21202-0.46665-0.21239h-7.4821z" fill="url(#linearGradient1951)"/>
 <path d="m7.542 4.0979s-0.35919 0.47868-1.1575 0.79218c-0.03271 0.00587-0.06509 0.011575-0.10077 0.017052h-4.9608c-0.21986 0-0.41824 0.088552-0.56171 0.23202-0.13937 0.13936-0.22041 0.33333-0.2253 0.54569v0.38446c0.0049-0.21236 0.08593-0.40633 0.2253-0.54569 0.14347-0.14347 0.34185-0.23202 0.56171-0.23202h4.9608c0.03568-0.00548 0.06806-0.011184 0.10077-0.017052 0.75911-0.26303 1.2883-0.79218 1.2883-0.79218h8.0707c0.18216 3.704e-4 0.34718 0.081016 0.46663 0.21239 0.1197 0.13167 0.19378 0.31377 0.19378 0.51469v-0.38446c0-0.20092-0.07408-0.38302-0.19378-0.51469-0.11945-0.13137-0.28447-0.21202-0.46663-0.21239h-7.4821zm-7.0062 2.1037c-0.0026 0.026291-0.0067 0.052013-0.0067 0.079063v0.38447c0-0.02705 0.0041-0.052773 0.0067-0.079063z" fill="url(#linearGradient11110)" opacity=".3"/>
<path d="m11.472 10.784q0.03023 0 0.06744 0.01163 0.03721 0.0093 0.07441 0.02325 0.03953 0.01395 0.07441 0.03023 0.03721 0.01628 0.06744 0.0279-0.0186 0.0023-0.03953 0.0047-0.0186 0.0023-0.03721 0.0023-0.03953 0-0.07209-0.01163-0.03256-0.01395-0.06278-0.03023-0.02791-0.01628-0.05581-0.0279-0.02558-0.01395-0.04883-0.01395t-0.04186 0.0093q-0.0186 0.0093-0.03721 0.02093 0-0.0093-0.01628-0.0093 0.01628-0.01628 0.06046-0.02558 0.04418-0.01163 0.06744-0.01163zm0.31393 0.10464q0.09534 0 0.1744 0.03256-0.03256 0.01163-0.06511 0.02093-0.03256 7e-3 -0.06744 7e-3 -0.04651 0-0.08371-0.0093 0.01163-0.0186 0.02325-0.02325 0.01163-7e-3 0.0186-0.02791zm0.91388-2.158q0.32788 0 0.63018 0.08604 0.30463 0.08604 0.5674 0.24184 0.2651 0.15348 0.48368 0.37206 0.21859 0.21859 0.37206 0.48368 0.1558 0.26277 0.24184 0.5674 0.08604 0.3023 0.08604 0.63018t-0.08604 0.63251q-0.08604 0.3023-0.24184 0.5674-0.15348 0.26277-0.37206 0.48136t-0.48368 0.37439q-0.26277 0.15348-0.5674 0.23952-0.3023 0.08604-0.63018 0.08604t-0.63251-0.08604q-0.3023-0.08604-0.5674-0.23952-0.26277-0.1558-0.48136-0.37439t-0.37439-0.48136q-0.15348-0.2651-0.23952-0.5674-0.08604-0.30463-0.08604-0.63251t0.08604-0.63018q0.08604-0.30463 0.23952-0.5674 0.1558-0.2651 0.37439-0.48368 0.21859-0.21859 0.48136-0.37206 0.2651-0.1558 0.5674-0.24184 0.30463-0.08604 0.63251-0.08604zm1.772 1.2906q-0.03256-0.05116-0.06511-0.097667-0.03256-0.048833-0.06744-0.095341-0.0047 0.020929-0.01395 0.03023-7e-3 0.0093-7e-3 0.041857 0 0.020929 0.01628 0.041857 0.0186 0.018603 0.04186 0.034881 0.02558 0.01628 0.05116 0.02791t0.04418 0.01628zm-0.16045-0.22789q0 0.018603-7e-3 0.025579h0.01395q0.0093 0 0.01395 0.00233zm-1.6115 3.4021q0.2651 0 0.51856-0.06744 0.25347-0.06744 0.47903-0.19068 0.22789-0.12557 0.41857-0.3023 0.19301-0.17906 0.33718-0.39997-0.03023-0.06976-0.05814-0.14185-0.02791-0.07209-0.02791-0.14882 0-0.08371 7e-3 -0.13487 0.0093-0.05348 0.01628-0.09069 7e-3 -0.03721 0.0093-0.06744 0.0047-0.03256-7e-3 -0.07209-0.01163-0.03953-0.04186-0.09534-0.02791-0.05581-0.08371-0.14418 0.0023-0.01628 7e-3 -0.04418 7e-3 -0.02791 0.0093-0.05814t0-0.05581q0-0.02791-0.0093-0.04418-0.06046-7e-3 -0.1279-0.02558-0.06511-0.0186-0.11394-0.05581l0.01395-0.01163q-0.03023 7e-3 -0.06046 0.02093-0.03023 0.01163-0.06046 0.02325-0.02791 0.01163-0.05814 0.02093-0.03023 7e-3 -0.06279 7e-3l-0.03721-0.0047 7e-3 -0.01628q-0.03256 0.0093-0.07209 0.02325-0.03721 0.01395-0.06976 0.01395-0.02325 0-0.06744-0.01628-0.04418-0.01628-0.09069-0.03953-0.04418-0.02325-0.07906-0.05116-0.03256-0.02791-0.03256-0.05348l0.0047-7e-3q-0.01163-0.01395-0.03023-0.02558t-0.03721-0.02325q-0.01628-0.01163-0.0279-0.02558-0.01163-0.01395-0.01163-0.03256l0.02558-0.02093-0.05348-7e-3 -0.0186-0.06976q0.0046 0.01163 0.02093 0.0093 0.0186-0.0023 0.02558-0.0093l-0.08371-0.04418 0.05814-0.14882q-0.03256-0.12092-0.01628-0.18603 0.0186-0.06511 0.06279-0.10697 0.04418-0.04418 0.10232-0.08371 0.06046-0.04186 0.11394-0.11394l-7e-3 -0.02791 0.15348-0.18603 0.03488-0.00465q0.06511 0 0.1465-0.00465 0.08139-0.00698 0.1651-0.016278 0.08371-0.011627 0.1651-0.023254 0.08139-0.013952 0.14882-0.03023-0.07441-0.088365-0.15813-0.16743-0.08139-0.079064-0.17208-0.15115-0.02558 0.0093-0.06511 0.027905-0.03721 0.016278-0.07209 0.041857-0.03488 0.023254-0.06046 0.053484-0.02325 0.03023-0.02325 0.062786l0.01395 0.044182q-0.04186 0.067437-0.09302 0.08604-0.05116 0.016278-0.10697 0.018603-0.05348 0-0.11162-0.00233-0.05581-0.00233-0.10929 0.020929l-0.03721-0.079063 0.03488-0.13487-0.03953-0.058135 0.40229-0.12557q-0.02558-0.065111-0.08604-0.097667-0.05814-0.032556-0.12557-0.032556v-0.023254l0.13022-0.020929q-0.21626-0.10697-0.45113-0.16278-0.23254-0.05581-0.47438-0.05581-0.20231 0-0.39997 0.039532-0.19766 0.039532-0.38369 0.11627-0.18371 0.074413-0.35346 0.18371-0.16975 0.10929-0.31393 0.25114 0.06046 0 0.09302 0.032555 0.03488 0.03023 0.06046 0.067436 0.02791 0.034881 0.05814 0.067437 0.03023 0.03023 0.08139 0.03023l0.03721-0.027905-0.0047-0.051159 0.07674-0.10929-0.06046-0.17208q0.01163-0.00698 0.03488-0.023254 0.02558-0.016278 0.03953-0.016278 0.06976 0 0.10697 0.00698 0.03953 0.00698 0.06511 0.027905 0.02558 0.018603 0.04883 0.053484 0.02325 0.032556 0.06511 0.08604l0.08371-0.065111q0.02325 0.0093 0.07441 0.032555 0.05348 0.020929 0.10464 0.051159 0.05116 0.027905 0.09069 0.06046 0.03953 0.032556 0.03953 0.06046 0 0.034881-0.02791 0.05581-0.02558 0.020929-0.06511 0.034881t-0.08836 0.023254q-0.04651 0.00698-0.08604 0.016278-0.03953 0.0093-0.06744 0.025579-0.0279 0.013952-0.0279 0.037206l0.13487 0.044182q-0.04651 0.03953-0.10232 0.07441-0.05349 0.03256-0.10929 0.05814l0.0093 0.03953-0.21394 0.08371v0.06511l-0.01628 7e-3 0.01163-0.08139-0.0093-0.0023q-0.01628 0-0.02093 7e-3 -0.0023 7e-3 0 0.01628 0.0023 0.0093 0.0047 0.0186 0.0047 0.0093 0.0023 0.01395l-0.03023-0.01628 0.0047 0.0093q0 7e-3 7e-3 0.02093 0.0093 0.01395 0.0186 0.02791 0.01163 0.01163 0.0186 0.02325 0.0093 0.0093 0.0093 0.0093 0 7e-3 -0.01163 0.01395-0.0093 7e-3 -0.02093 0.01163-0.01163 0.0023-0.0186 0.0046-7e-3 0.0023 0 0.0023 0.03256 0 0.01163 0.0047-0.0186 0.0046-0.05581 0.02325-0.03721 0.0186-0.07441 0.05581-0.03488 0.03488-0.03488 0.09999 0 0.03953 0.0023 0.07674 0.0047 0.03721-0.0023 0.07674-0.03256-0.08837-0.09767-0.13487-0.06511-0.04651-0.15813-0.04651l-0.09999 0.0093 0.04883 0.03255q-0.03953-0.0046-0.08371-0.0093-0.04186-0.0047-0.08371 0-0.04186 0.0023-0.08139 0.0186-0.03721 0.01395-0.06744 0.04651l-0.01395 0.10464q0 0.07441 0.03256 0.12325 0.03488 0.04651 0.11394 0.04651 0.06976 0 0.1372-0.02093 0.06744-0.02325 0.13255-0.04883-0.02093 0.05116-0.04651 0.09999-0.02558 0.04651-0.03721 0.09999l0.03023 0.01395q0.05581-0.03721 0.10232-0.01163 0.04651 0.02558 0.09069 0.07441t0.09069 0.10232q0.04651 0.05116 0.09999 0.07209l-0.07906 0.04186-0.18603-0.10464q0.0023 0.0047 0.0047 0.02093 0.0046 0.01628-0.0023 7e-3l-0.08371-0.14185q-0.07441-0.0023-0.16045-0.02325-0.08371-0.02325-0.16743-0.05581-0.08371-0.03488-0.16278-0.07674-0.07674-0.04418-0.13487-0.08837l-0.01628 0.24882q0 0.2837 0.07674 0.55344 0.07674 0.26975 0.21626 0.50694 0.14185 0.23719 0.34183 0.43485 0.19998 0.19533 0.4488 0.33021-0.01163-0.04883-0.0023-0.09767 0.0093-0.04883 0.02325-0.09767 0.01628-0.04883 0.03023-0.09767 0.01628-0.05116 0.01628-0.09999 0-0.07441-0.02325-0.1558-0.02325-0.08371-0.05814-0.1651-0.03256-0.08371-0.06976-0.1651-0.03721-0.08139-0.06511-0.15348-0.02558-0.07441-0.03488-0.13487-0.0093-0.06278 0.01395-0.10929l-0.03488-0.01628q0.01395-0.03256 0.03721-0.06279 0.02558-0.03023 0.04883-0.06046 0.02325-0.03256 0.03953-0.06511 0.01628-0.03256 0.01628-0.06976 0-0.02325-0.01163-0.04883-0.0093-0.02791-0.01395-0.04883l0.04883 0.01163q0.03953-0.09069 0.10697-0.12325 0.06976-0.03488 0.16975-0.03488 0.01163 0 0.04883 0.01163 0.03721 0.0093 0.07906 0.02325 0.04186 0.01395 0.07906 0.02791 0.03953 0.01163 0.05581 0.01628 0 0.01628 0.0186 0.02325 0.02093 0.0047 0.02093 0.01395l-0.0047 0.0186q7e-3 0.0023 0.03256 0.0186 0.0279 0.01395 0.05581 0.03256 0.03023 0.0186 0.05348 0.03721 0.02558 0.0186 0.03256 0.02558 0.04186 0 0.11394 0.0279 0.07441 0.02791 0.15813 0.07209 0.08371 0.04186 0.16975 0.09999 0.08836 0.05581 0.15813 0.11627 0.06976 0.05813 0.11394 0.11627 0.04651 0.05581 0.04651 0.09999l-0.07906 0.08371q0.0093 0.1186-0.0186 0.18371-0.02558 0.06278-0.07906 0.10232-0.05116 0.03953-0.12325 0.06976-0.06976 0.03023-0.14882 0.07906 0 0.04651-0.02325 0.10232-0.02325 0.05348-0.06046 0.10232-0.03488 0.04651-0.08371 0.07906-0.04651 0.03256-0.09534 0.03256l-0.09767-0.07441q0.0047 0.0046-0.0023 0.0186-0.0047 0.01163-0.0093 0.0023 0.02325 0.04418 0.01163 0.10232-0.01163 0.05814-0.03953 0.1186-0.0279 0.06046-0.06279 0.11627-0.03488 0.05348-0.06279 0.08837 0.12557 0.03255 0.25114 0.04883t0.25347 0.01628z" fill="#002d2e" stroke-width=".79373"/>
</svg>