<?xml version="1.0" encoding="UTF-8" standalone="no"?>
<svg
   width="64"
   height="64"
   version="1.1"
   viewBox="0 0 16.933 16.933"
   id="svg84"
   sodipodi:docname="filemanager-actions.svg"
   inkscape:version="1.1 (c4e8f9ed74, 2021-05-24)"
   xmlns:inkscape="http://www.inkscape.org/namespaces/inkscape"
   xmlns:sodipodi="http://sodipodi.sourceforge.net/DTD/sodipodi-0.dtd"
   xmlns="http://www.w3.org/2000/svg"
   xmlns:svg="http://www.w3.org/2000/svg"
   xmlns:rdf="http://www.w3.org/1999/02/22-rdf-syntax-ns#"
   xmlns:cc="http://creativecommons.org/ns#"
   xmlns:dc="http://purl.org/dc/elements/1.1/">
  <sodipodi:namedview
     id="namedview86"
     pagecolor="#ffffff"
     bordercolor="#666666"
     borderopacity="1.0"
     inkscape:pageshadow="2"
     inkscape:pageopacity="0.0"
     inkscape:pagecheckerboard="0"
     showgrid="false"
     inkscape:zoom="8.515625"
     inkscape:cx="31.941284"
     inkscape:cy="32"
     inkscape:window-width="1366"
     inkscape:window-height="742"
     inkscape:window-x="1366"
     inkscape:window-y="0"
     inkscape:window-maximized="1"
     inkscape:current-layer="svg84" />
  <defs
     id="defs24">
    <style
       type="text/css"
       id="style2" />
    <linearGradient
       id="linearGradient1911"
       x1="25.085"
       x2="25.085"
       y1="24.031"
       y2="26.412"
       gradientTransform="translate(-17.897 -21.385)"
       gradientUnits="userSpaceOnUse">
      <stop
         stop-color="#047e5c"
         stop-opacity=".99608"
         offset="0"
         id="stop4" />
      <stop
         stop-color="#06755d"
         offset="1"
         id="stop6" />
    </linearGradient>
    <linearGradient
       id="linearGradient4625"
       x1=".52918"
       x2="16.404"
       y1="5.0665"
       y2="5.0665"
       gradientUnits="userSpaceOnUse">
      <stop
         stop-color="#108b94"
         offset="0"
         id="stop9" />
      <stop
         stop-color="#42aeb8"
         stop-opacity="0"
         offset="1"
         id="stop11" />
    </linearGradient>
    <linearGradient
       id="linearGradient1951"
       x1="100"
       x2="133.19"
       y1="17.453"
       y2="51.606"
       gradientTransform="matrix(.26458 0 0 .26458 -20.108 -.13539)"
       gradientUnits="userSpaceOnUse">
      <stop
         stop-color="#38c494"
         offset="0"
         id="stop14" />
      <stop
         stop-color="#0099a8"
         offset="1"
         id="stop16" />
    </linearGradient>
    <linearGradient
       id="linearGradient11110"
       x1=".52917"
       x2="16.404"
       y1="5.3815"
       y2="5.3815"
       gradientUnits="userSpaceOnUse">
      <stop
         stop-color="#fff"
         offset="0"
         id="stop19" />
      <stop
         stop-color="#fff"
         stop-opacity="0"
         offset="1"
         id="stop21" />
    </linearGradient>
  </defs>
  <metadata
     id="metadata26">
    <rdf:RDF>
      <cc:Work
         rdf:about="">
        <dc:format>image/svg+xml</dc:format>
        <dc:type
           rdf:resource="http://purl.org/dc/dcmitype/StillImage" />
      </cc:Work>
    </rdf:RDF>
  </metadata>
  <path
     d="m1.1975 2.2489c-0.3653 0-0.66145 0.32575-0.66145 0.72759v2.9636c-0.0026 0.02629-0.0072 0.052-0.0072 0.07906v7.9373c0 0.40184 0.29614 0.72759 0.66144 0.72759h14.552c0.36531 0 0.66144-0.32575 0.66144-0.72759v-9.393c0-0.40184-0.29614-0.72759-0.66144-0.72759v5.16e-4h-8.1993l-0.89864-1.1095s-0.36607-0.478-1.0583-0.478h-1.3229z"
     color="#000000"
     color-rendering="auto"
     dominant-baseline="auto"
     fill="url(#linearGradient1911)"
     image-rendering="auto"
     shape-rendering="auto"
     solid-color="#000000"
     stop-color="#000000"
     style="font-feature-settings:normal;font-variant-alternates:normal;font-variant-caps:normal;font-variant-east-asian:normal;font-variant-ligatures:normal;font-variant-numeric:normal;font-variant-position:normal;font-variation-settings:normal;inline-size:0;isolation:auto;mix-blend-mode:normal;shape-margin:0;shape-padding:0;text-decoration-color:#000000;text-decoration-line:none;text-decoration-style:solid;text-indent:0;text-orientation:mixed;text-transform:none;white-space:normal"
     id="path28" />
  <g
     fill="#5e4aa6"
     stroke-width=".26458"
     id="g72">
    <circle
       cx="-330.35"
       cy="-328.38"
       r="0"
       id="circle30" />
    <circle
       cx="-312.11"
       cy="-326.25"
       r="0"
       id="circle32" />
    <circle
       cx="-306.02"
       cy="-333.07"
       r="0"
       id="circle34" />
    <circle
       cx="-308.84"
       cy="-326.01"
       r="0"
       id="circle36" />
    <g
       transform="translate(.000295 -.00032978)"
       id="g48">
      <circle
         cx="-330.35"
         cy="-328.38"
         r="0"
         id="circle38" />
      <circle
         cx="-312.11"
         cy="-326.25"
         r="0"
         id="circle40" />
      <circle
         cx="-306.02"
         cy="-333.07"
         r="0"
         id="circle42" />
      <circle
         cx="-308.84"
         cy="-326.01"
         r="0"
         id="circle44" />
      <circle
         cx="-328.8"
         cy="-330.45"
         r="0"
         id="circle46" />
    </g>
    <circle
       cx="-330.35"
       cy="-328.38"
       r="0"
       id="circle50" />
    <circle
       cx="-312.11"
       cy="-326.25"
       r="0"
       id="circle52" />
    <circle
       cx="-306.02"
       cy="-333.07"
       r="0"
       id="circle54" />
    <circle
       cx="-308.84"
       cy="-326.01"
       r="0"
       id="circle56" />
    <circle
       cx="-328.8"
       cy="-330.45"
       r="0"
       id="circle58" />
    <g
       transform="translate(2.95e-4,-3.2978e-4)"
       id="g70">
      <circle
         cx="-330.35"
         cy="-328.38"
         r="0"
         id="circle60" />
      <circle
         cx="-312.11"
         cy="-326.25"
         r="0"
         id="circle62" />
      <circle
         cx="-306.02"
         cy="-333.07"
         r="0"
         id="circle64" />
      <circle
         cx="-308.84"
         cy="-326.01"
         r="0"
         id="circle66" />
      <circle
         cx="-328.8"
         cy="-330.45"
         r="0"
         id="circle68" />
    </g>
  </g>
  <path
     d="m8.3606 3.8364c-0.11312 0.0018-0.30848-0.01542-0.51986 0.09508-0.73647 0.37946-0.77226 0.59366-1.557 0.71415h-4.9608c-0.21986 0-0.41824 0.08855-0.56171 0.23202-0.13937 0.13936-0.22041 0.33333-0.2253 0.54569v0.2775c0.0049-0.21236 0.08593-0.40633 0.2253-0.54569 0.14347-0.14347 0.34185-0.23202 0.56171-0.23202h4.9608c0.78472-0.1205 0.82051-0.33469 1.557-0.71415 0.21138-0.1105 0.40673-0.09328 0.51986-0.09508h7.3828c0.18216 3.65e-4 0.3472 0.08101 0.46663 0.21239 0.1197 0.13167 0.19378 0.31377 0.19378 0.51469v-0.2775c0-0.20092-0.07408-0.38302-0.19378-0.51469-0.11943-0.13137-0.28447-0.21202-0.46663-0.21239h-1.1652zm-7.8247 2.1037c-0.0026 0.02629-0.0067 0.05201-0.0067 0.07906v0.2775c0-0.02705 0.0041-0.05277 0.0067-0.07906z"
     fill="url(#linearGradient4625)"
     opacity=".2"
     stroke-width=".26458"
     id="path74" />
  <path
     d="m0.52916 13.674v0.28215c0 0.20092 0.07357 0.3825 0.19327 0.51417s0.28553 0.21342 0.46818 0.21342h14.552c0.18265 0 0.34796-0.08175 0.46766-0.21342s0.19378-0.31325 0.19378-0.51417v-0.28215c0 0.20092-0.07409 0.3825-0.19378 0.51417-0.1197 0.13167-0.28501 0.21342-0.46766 0.21342h-14.552c-0.18265 0-0.34848-0.08176-0.46818-0.21342s-0.19327-0.31325-0.19327-0.51417z"
     fill="#1fad9d"
     fill-opacity=".99608"
     stroke-width=".26458"
     id="path76" />
  <path
     d="m7.542 4.0979s-0.35919 0.47868-1.1575 0.79218c-0.03271 0.00587-0.06509 0.011575-0.10077 0.017052h-4.9608c-0.21986 0-0.41824 0.088552-0.56171 0.23202-0.13937 0.13936-0.22042 0.33333-0.2253 0.54569v0.51675c-0.0026 0.026291-0.0067 0.052014-0.0067 0.079064v7.3953c0 0.20092 0.07357 0.3825 0.19327 0.51417 0.1197 0.13167 0.28553 0.21342 0.46818 0.21342h14.552c0.18265 0 0.34796-0.08175 0.46766-0.21342 0.1197-0.13167 0.19378-0.31325 0.19378-0.51417v-8.851c0-0.20092-0.07408-0.38302-0.19378-0.51469-0.11945-0.13137-0.28449-0.21202-0.46665-0.21239h-7.4821z"
     fill="url(#linearGradient1951)"
     id="path78" />
  <path
     d="m7.542 4.0979s-0.35919 0.47868-1.1575 0.79218c-0.03271 0.00587-0.06509 0.011575-0.10077 0.017052h-4.9608c-0.21986 0-0.41824 0.088552-0.56171 0.23202-0.13937 0.13936-0.22041 0.33333-0.2253 0.54569v0.38446c0.0049-0.21236 0.08593-0.40633 0.2253-0.54569 0.14347-0.14347 0.34185-0.23202 0.56171-0.23202h4.9608c0.03568-0.00548 0.06806-0.011184 0.10077-0.017052 0.75911-0.26303 1.2883-0.79218 1.2883-0.79218h8.0707c0.18216 3.704e-4 0.34718 0.081016 0.46663 0.21239 0.1197 0.13167 0.19378 0.31377 0.19378 0.51469v-0.38446c0-0.20092-0.07408-0.38302-0.19378-0.51469-0.11945-0.13137-0.28447-0.21202-0.46663-0.21239h-7.4821zm-7.0062 2.1037c-0.0026 0.026291-0.0067 0.052013-0.0067 0.079063v0.38447c0-0.02705 0.0041-0.052773 0.0067-0.079063z"
     fill="url(#linearGradient11110)"
     opacity=".3"
     id="path80" />
  <path
     d="M 8.2538099,6.9090749 C 8.0801535,6.9090714 7.913246,6.9780155 7.7907345,7.1011136 7.6689811,7.2234462 7.6006471,7.3897496 7.6006223,7.5622625 7.5980122,7.7423943 7.4550676,7.8837232 7.2749855,7.8840339 7.2214294,7.8833669 7.1694767,7.8683424 7.1234153,7.8410026 a 0.16443414,0.16443414 0 0 0 -0.00261,-0.00128 C 6.8090266,7.6610448 6.4068652,7.7698063 6.2274542,8.0812157 L 6.0578994,8.3599583 a 0.16443414,0.16443414 0 0 0 -0.00186,0.00323 C 5.876823,8.6742102 5.9840221,9.076123 6.2943216,9.2565904 a 0.16443414,0.16443414 0 0 0 6.414e-4,6.414e-4 c 0.1012332,0.058441 0.1631415,0.1657267 0.1631415,0.2825955 0,0.1169185 -0.061883,0.2241301 -0.1631415,0.2825956 C 5.9847256,10.001871 5.876905,10.403448 6.0560425,10.713872 a 0.16443414,0.16443414 0 0 0 0,6.58e-4 l 0.1605688,0.276816 c 0,0 6.413e-4,6.57e-4 6.413e-4,6.57e-4 0.084541,0.152043 0.2263549,0.264586 0.3937098,0.312139 0.1676657,0.04768 0.3476483,0.02614 0.4996784,-0.05909 a 0.16443414,0.16443414 0 0 0 0.00186,-0.0012 c 0.074188,-0.04333 0.1623958,-0.055 0.2453462,-0.03279 a 0.16443414,0.16443414 0 0 0 6.4e-4,0 c 0.082963,0.0222 0.1532482,0.07639 0.1958917,0.150936 a 0.16443414,0.16443414 0 0 0 0.00124,0.0026 c 0.027468,0.04628 0.042469,0.09842 0.043029,0.152216 8.476e-4,0.359282 0.2956334,0.653834 0.6551141,0.653834 h 0.3217714 c 0.358797,0 0.6534113,-0.293757 0.655114,-0.652541 a 0.16443414,0.16443414 0 0 0 0,-0.0012 c -4.278e-4,-0.08656 0.033844,-0.169344 0.095056,-0.230581 0.060864,-0.06086 0.1432677,-0.09445 0.2292885,-0.09441 0.05441,0.0017 0.108106,0.01678 0.155436,0.04368 0.3109213,0.178591 0.7130703,0.07112 0.8934003,-0.23892 l 0.167629,-0.280035 a 0.16443414,0.16443414 0 0 0 0.0012,-0.002 c 0.08746,-0.150091 0.111575,-0.32857 0.06681,-0.496459 -0.04478,-0.167865 -0.154504,-0.3115675 -0.30508,-0.3982092 -0.07483,-0.043054 -0.12931,-0.1137368 -0.15157,-0.1971719 -0.02225,-0.08341 -0.01069,-0.1720282 0.03275,-0.2466263 a 0.16443414,0.16443414 0 0 0 6.58e-4,-0.00124 c 0.02803,-0.048933 0.06857,-0.089488 0.11754,-0.11754 a 0.16443414,0.16443414 0 0 0 0.0012,-6.413e-4 c 0.29567,-0.1729604 0.403056,-0.5462868 0.255612,-0.8503719 a 0.16443414,0.16443414 0 0 0 -0.01734,-0.043029 L 10.613516,8.0857125 C 10.434093,7.7743316 10.031956,7.665554 9.7201147,7.8442192 a 0.16443414,0.16443414 0 0 0 -0.002,0.00128 c -0.0742,0.043717 -0.162558,0.056334 -0.24598,0.03468 -0.083386,-0.021651 -0.1548643,-0.07596 -0.1984648,-0.1502901 a 0.16443414,0.16443414 0 0 0 0,-6.412e-4 c -0.027431,-0.046246 -0.042457,-0.09842 -0.043017,-0.152216 v 0.00643 C 9.2357489,7.4064703 9.1690928,7.2344794 9.0456864,7.1075432 8.92228,6.9805946 8.7525761,6.9090042 8.575539,6.9090788 Z m 0,0.3288434 h 0.3217714 c 0.08827,-3.71e-5 0.1728733,0.035586 0.2344336,0.098909 0.061548,0.063312 0.094385,0.1487365 0.09185,0.236994 a 0.16443414,0.16443414 0 0 0 0,0.00643 c 0.00118,0.1112162 0.032066,0.2202274 0.08863,0.315992 0.087686,0.1495195 0.2310654,0.2582971 0.3988429,0.3018603 0.1670439,0.043364 0.3449639,0.018954 0.4938989,-0.068085 0.1578843,-0.09047 0.3542483,-0.03756 0.4450913,0.1201003 l 0.154143,0.2671837 a 0.16443414,0.16443414 0 0 0 0.0057,0.011559 c 0.08965,0.1570638 0.03727,0.3524956 -0.11882,0.4438106 -0.09873,0.056837 -0.180778,0.1388804 -0.23764,0.2376403 v 6.413e-4 c -0.08719,0.1500042 -0.111525,0.3288186 -0.06679,0.4964718 0.04477,0.1678397 0.154454,0.3109214 0.305079,0.3975634 0.07484,0.04305 0.129323,0.114408 0.151571,0.197818 0.02214,0.08299 0.01019,0.170996 -0.03276,0.245346 -2.21e-4,3.95e-4 2.21e-4,8.89e-4 0,0.0012 l -0.168275,0.280035 a 0.16443414,0.16443414 0 0 0 -0.0012,0.002 c -0.09135,0.157063 -0.287641,0.209538 -0.4450903,0.11882 a 0.16443414,0.16443414 0 0 0 -6.58e-4,-6.58e-4 c -0.09523,-0.05446 -0.202504,-0.08442 -0.312139,-0.08735 a 0.16443414,0.16443414 0 0 0 -0.0032,0 c -0.1742035,-8.51e-4 -0.3417945,0.06821 -0.4649772,0.191405 -0.1231454,0.12317 -0.1922251,0.29014 -0.1913924,0.464355 -0.00149,0.181002 -0.14507,0.323698 -0.3262707,0.323698 H 8.2537738 c -0.1822944,0 -0.3269168,-0.144013 -0.3269168,-0.32627 a 0.16443414,0.16443414 0 0 0 0,-0.002 C 7.925697,11.402423 7.895163,11.293645 7.83886,11.198042 7.752678,11.047901 7.6104917,10.937719 7.4432237,10.892963 c -0.1666465,-0.04462 -0.3446032,-0.02073 -0.493899,0.06551 -0.075829,0.04251 -0.1649437,0.05267 -0.2485528,0.0289 -0.083609,-0.02375 -0.1543916,-0.0794 -0.196538,-0.155423 a 0.16443414,0.16443414 0 0 0 -0.00124,-0.0032 L 6.3411798,10.550076 C 6.2508094,10.393472 6.3028491,10.19809 6.4593536,10.107558 6.6618823,9.9906143 6.7869044,9.7736681 6.7869044,9.5397938 c 0,-0.2336879 -0.1252458,-0.4501369 -0.3275508,-0.5671176 V 8.9720349 C 6.3026627,8.8805707 6.2505484,8.6848779 6.3411798,8.5275904 L 6.5107346,8.2488478 a 0.16443414,0.16443414 0 0 0 0.00186,-0.00323 c 0.09083,-0.157648 0.2872315,-0.2112041 0.4450907,-0.1207466 0.095429,0.056054 0.2040078,0.086841 0.3147118,0.087997 a 0.16443414,0.16443414 0 0 0 0.00186,0 c 0.3564355,4.35e-5 0.6499934,-0.2897298 0.6551141,-0.6461156 a 0.16443414,0.16443414 0 0 0 0,-0.00321 c -4.126e-4,-0.086314 0.033533,-0.1687594 0.09441,-0.2299343 0.060877,-0.061165 0.1436406,-0.0957 0.2299343,-0.095697 z m 0.1612026,1.3153489 c -0.5428937,0 -0.9865178,0.4436242 -0.9865178,0.9865179 0,0.5428939 0.4436241,0.9865299 0.9865178,0.9865299 0.5428937,0 0.9865179,-0.443624 0.9865179,-0.9865299 0,-0.5428937 -0.4436242,-0.9865179 -0.9865179,-0.9865179 z m 0,0.3288434 c 0.3651731,0 0.6576869,0.2925014 0.6576869,0.6576869 0,0.3651731 -0.2925014,0.6576865 -0.6576869,0.6576865 -0.365173,0 -0.6576868,-0.292501 -0.6576868,-0.6576865 0,-0.3651731 0.2925013,-0.6576869 0.6576868,-0.6576869 z"
     clip-rule="evenodd"
     color="#000000"
     color-rendering="auto"
     dominant-baseline="auto"
     fill="#ffffff"
     fill-rule="evenodd"
     image-rendering="auto"
     opacity="0.75"
     shape-rendering="auto"
     solid-color="#000000"
     stop-color="#000000"
     style="font-variant-ligatures:normal;font-variant-position:normal;font-variant-caps:normal;font-variant-numeric:normal;font-variant-alternates:normal;font-variant-east-asian:normal;font-feature-settings:normal;font-variation-settings:normal;text-indent:0;text-decoration-line:none;text-decoration-style:solid;text-decoration-color:#000000;text-transform:none;text-orientation:mixed;white-space:normal;shape-padding:0;shape-margin:0;inline-size:0;isolation:auto;mix-blend-mode:normal;fill:#004e44;fill-opacity:1;stroke-width:1.24289"
     id="path82" />
</svg>
